<?xml version="1.0" encoding="UTF-8" standalone="no"?>
<!-- Created with Inkscape (http://www.inkscape.org/) -->

<svg
   width="81mm"
   height="114mm"
   viewBox="0 0 81 114"
   version="1.1"
   id="svg5"
   sodipodi:docname="logo.svg"
   inkscape:version="1.1.2 (0a00cf5339, 2022-02-04, custom)"
   xmlns:inkscape="http://www.inkscape.org/namespaces/inkscape"
   xmlns:sodipodi="http://sodipodi.sourceforge.net/DTD/sodipodi-0.dtd"
   xmlns="http://www.w3.org/2000/svg"
   xmlns:svg="http://www.w3.org/2000/svg">
  <sodipodi:namedview
     id="namedview14"
     pagecolor="#ffffff"
     bordercolor="#666666"
     borderopacity="1.0"
     inkscape:pageshadow="2"
     inkscape:pageopacity="0.0"
     inkscape:pagecheckerboard="0"
     inkscape:document-units="mm"
     showgrid="false"
     inkscape:zoom="0.56123737"
     inkscape:cx="396.44544"
     inkscape:cy="220.94038"
     inkscape:window-width="1920"
     inkscape:window-height="1021"
     inkscape:window-x="0"
     inkscape:window-y="30"
     inkscape:window-maximized="1"
     inkscape:current-layer="svg5" />
  <defs
     id="defs2" />
  <g
     id="layer1"
     transform="translate(-80.93793,-82.660462)">
    <path
       style="fill:#e94335;fill-opacity:1;stroke:#000000;stroke-width:0.264583px;stroke-linecap:butt;stroke-linejoin:miter;stroke-opacity:1"
       d="m 97.455925,98.279334 -0.002,28.662656 16.668465,-28.613106 z"
       id="path186" />
    <path
       style="fill:#e94335;fill-opacity:1;stroke-width:0.0418415"
       d="m 97.589215,112.41273 -7.93e-4,-13.987456 8.127718,0.0286 c 4.47024,0.0157 8.12941,0.0307 8.13149,0.0333 0.002,0.003 -3.54712,6.098646 -7.88712,13.546736 -4.34,7.44809 -7.998859,13.72746 -8.130796,13.95415 l -0.239882,0.41216 z"
       id="path5642" />
    <path
       style="fill:#e94335;fill-opacity:1;stroke-width:0.0418415"
       d="m 97.588906,112.41264 -2.65e-4,-13.987546 8.127709,0.0286 c 4.47025,0.0157 8.12965,0.0308 8.132,0.0334 0.002,0.003 -0.91242,1.576956 -2.03284,3.498536 -1.96336,3.36724 -6.99921,12.0115 -11.74898,20.16761 -1.253059,2.1517 -2.32302,3.9875 -2.377694,4.07955 l -0.0994,0.16736 z"
       id="path5681" />
    <path
       style="fill:#fcbc05;fill-opacity:1;stroke:#000000;stroke-width:0.264583px;stroke-linecap:butt;stroke-linejoin:miter;stroke-opacity:1"
       d="M 115.24788,98.932307 98.192815,128.2566 115.30109,165.30246 Z"
       id="path5833" />
    <path
       style="fill:#34a853;fill-opacity:1;stroke:#000000;stroke-width:0.264583px;stroke-linecap:butt;stroke-linejoin:miter;stroke-opacity:1"
       d="m 97.364805,129.8699 0.1491,52.59526 24.451175,-0.0508 z"
       id="path10620" />
    <path
       style="fill:#34a853;fill-opacity:1;stroke-width:0.0418415"
       d="m 97.657099,177.49537 c -0.01463,-2.65016 -0.03609,-9.73275 -0.0477,-15.7391 -0.01162,-6.00635 -0.03246,-12.26218 -0.04632,-13.90185 l -0.02521,-2.98121 3.341261,5.3e-4 3.34127,5.3e-4 8.75071,18.6923 c 4.81289,10.28077 8.73867,18.69546 8.72396,18.69931 -0.0147,0.004 -5.42329,0.0163 -12.01906,0.0276 l -11.992306,0.0206 z"
       id="path15300" />
    <path
       style="fill:#34a853;fill-opacity:1;stroke-width:0.0418415"
       d="m 97.661944,179.83859 c -0.0063,-1.36149 -0.01617,-5.7833 -0.0218,-9.82625 -0.0056,-4.04296 -0.01804,-7.37563 -0.0276,-7.40595 -0.0096,-0.0303 -0.02947,-5.53899 -0.04427,-12.24148 l -0.02692,-12.18634 h 1.772237 1.772239 l 0.59091,1.26571 c 0.325,0.69614 1.58785,3.39334 2.80634,5.9938 2.11476,4.51324 6.42826,13.72605 13.84067,29.56103 1.86901,3.99273 3.38613,7.26265 3.37138,7.2665 -0.0147,0.004 -5.42564,0.0163 -12.02422,0.0277 l -11.9974,0.0207 z"
       id="path15339" />
    <path
       style="fill:#4385f5;fill-opacity:1;stroke:#000000;stroke-width:0.264583px;stroke-linecap:butt;stroke-linejoin:miter;stroke-opacity:1"
       d="m 123.30297,182.26266 -7.19475,-15.45319 32.26472,0.0228 -1.86767,15.47029 z"
       id="path15411" />
    <path
       style="fill:#4385f5;fill-opacity:1;stroke-width:0.0418415"
       d="m 129.81245,182.11237 -6.4167,-0.0211 -3.51307,-7.54603 c -1.93219,-4.15032 -3.50547,-7.55364 -3.4962,-7.56291 0.009,-0.009 7.17107,-0.0121 15.91509,-0.006 l 15.8982,0.0105 -0.86405,7.1549 c -0.47524,3.93519 -0.88777,7.34789 -0.91674,7.58378 l -0.0527,0.42887 -5.06858,-0.0103 c -2.78772,-0.006 -7.95609,-0.0198 -11.48528,-0.0314 z"
       id="path19935" />
  </g>
</svg>
